<mxfile host="app.diagrams.net" modified="2022-02-03T07:08:35.606Z" agent="5.0 (Macintosh; Intel Mac OS X 10_15_7) AppleWebKit/537.36 (KHTML, like Gecko) Chrome/97.0.4692.99 Safari/537.36" etag="aVShwINjVaBSWsMec7R3" version="16.4.5" type="github">
  <diagram id="2bAznApdGgNUuWqxyC43" name="페이지-1">
    <mxGraphModel dx="593" dy="405" grid="1" gridSize="10" guides="1" tooltips="1" connect="1" arrows="1" fold="1" page="1" pageScale="1" pageWidth="1169" pageHeight="827" math="0" shadow="0">
      <root>
        <mxCell id="0" />
        <mxCell id="1" parent="0" />
        <mxCell id="uKwqtShbSjY22pOxoT1e-17" value="Ansible Mngt Node" style="swimlane;fontStyle=0;childLayout=stackLayout;horizontal=1;startSize=30;horizontalStack=0;resizeParent=1;resizeParentMax=0;resizeLast=0;collapsible=1;marginBottom=0;fillColor=#ffe6cc;strokeColor=#d79b00;" vertex="1" parent="1">
          <mxGeometry x="170" y="20" width="280" height="180" as="geometry" />
        </mxCell>
        <mxCell id="uKwqtShbSjY22pOxoT1e-19" value="Mold" style="swimlane;fontStyle=0;childLayout=stackLayout;horizontal=1;startSize=30;horizontalStack=0;resizeParent=1;resizeParentMax=0;resizeLast=0;collapsible=1;marginBottom=0;fillColor=#ffe6cc;strokeColor=#d79b00;" vertex="1" parent="1">
          <mxGeometry x="200" y="70" width="220" height="110" as="geometry" />
        </mxCell>
        <mxCell id="uKwqtShbSjY22pOxoT1e-16" value="Genie" style="rounded=0;whiteSpace=wrap;html=1;fillColor=#fff2cc;strokeColor=#d6b656;" vertex="1" parent="uKwqtShbSjY22pOxoT1e-19">
          <mxGeometry y="30" width="220" height="80" as="geometry" />
        </mxCell>
        <mxCell id="uKwqtShbSjY22pOxoT1e-20" value="" style="group" vertex="1" connectable="0" parent="1">
          <mxGeometry x="160" y="350" width="160" height="270" as="geometry" />
        </mxCell>
        <mxCell id="uKwqtShbSjY22pOxoT1e-21" value="" style="group" vertex="1" connectable="0" parent="uKwqtShbSjY22pOxoT1e-20">
          <mxGeometry width="160" height="270" as="geometry" />
        </mxCell>
        <mxCell id="uKwqtShbSjY22pOxoT1e-2" value="VM1" style="rounded=0;whiteSpace=wrap;html=1;fillColor=#fff2cc;strokeColor=#d6b656;" vertex="1" parent="uKwqtShbSjY22pOxoT1e-21">
          <mxGeometry x="20" y="50" width="120" height="60" as="geometry" />
        </mxCell>
        <mxCell id="uKwqtShbSjY22pOxoT1e-3" value="VM2" style="rounded=0;whiteSpace=wrap;html=1;fillColor=#fff2cc;strokeColor=#d6b656;" vertex="1" parent="uKwqtShbSjY22pOxoT1e-21">
          <mxGeometry x="20" y="120" width="120" height="60" as="geometry" />
        </mxCell>
        <mxCell id="uKwqtShbSjY22pOxoT1e-4" value="VM3" style="rounded=0;whiteSpace=wrap;html=1;fillColor=#fff2cc;strokeColor=#d6b656;" vertex="1" parent="uKwqtShbSjY22pOxoT1e-21">
          <mxGeometry x="20" y="190" width="120" height="60" as="geometry" />
        </mxCell>
        <mxCell id="uKwqtShbSjY22pOxoT1e-6" value="Host 인벤토리" style="swimlane;fontStyle=0;childLayout=stackLayout;horizontal=1;startSize=30;horizontalStack=0;resizeParent=1;resizeParentMax=0;resizeLast=0;collapsible=1;marginBottom=0;fillColor=#ffe6cc;strokeColor=#d79b00;" vertex="1" parent="uKwqtShbSjY22pOxoT1e-21">
          <mxGeometry width="160" height="270" as="geometry" />
        </mxCell>
        <mxCell id="uKwqtShbSjY22pOxoT1e-22" value="" style="group" vertex="1" connectable="0" parent="1">
          <mxGeometry x="390" y="360" width="160" height="130" as="geometry" />
        </mxCell>
        <mxCell id="uKwqtShbSjY22pOxoT1e-11" value="VM1" style="rounded=0;whiteSpace=wrap;html=1;fillColor=#fff2cc;strokeColor=#d6b656;" vertex="1" parent="uKwqtShbSjY22pOxoT1e-22">
          <mxGeometry x="20" y="50" width="120" height="60" as="geometry" />
        </mxCell>
        <mxCell id="uKwqtShbSjY22pOxoT1e-14" value="Playbook" style="swimlane;fontStyle=0;childLayout=stackLayout;horizontal=1;startSize=30;horizontalStack=0;resizeParent=1;resizeParentMax=0;resizeLast=0;collapsible=1;marginBottom=0;fillColor=#ffe6cc;strokeColor=#d79b00;" vertex="1" parent="uKwqtShbSjY22pOxoT1e-22">
          <mxGeometry width="160" height="130" as="geometry" />
        </mxCell>
      </root>
    </mxGraphModel>
  </diagram>
</mxfile>
